:SAMPLES-PER-SECOND 30
:FRAME-RANGE 1-744
:FULLY-SPECIFIED
:DEGREES
652
root  -74.9188 39.6152 -14.2795 176.277 62.1773 -172.324
RightUpLeg  7.7131 -0.0213911 6.17581
RightLeg  2.13891 8.28943 -2.13528
RightFoot  -3.20151 -0.296039 3.85162
RightToes  5.82063e-011 0 -3.6325e-017
Spine  17.4227 1.54314 11.3518
Spine1  -0.328107 4.84957 -6.46025
HEad  -20.9766 -24.4152 7.47239
LeftShoulder1  3.14697 -4.04764 -35.6277
LeftArm  2.54281 6.27458 -29.6337
LeftForeArm  14.4296 -3.57367 -16.3052
LeftHand  -1.55091 -5.49065 16.755
RightShoulder  11.9847 11.3486 68.4967
RightArm  17.8886 8.31852 -2.25322
RightForeArm  12.5222 5.26764 14.899
RightHand  0.941589 20.1599 3.74231
LeftUpLeg  -7.64048 3.77409 12.5415
LeftLeg  32.7949 2.10155 1.80808
LeftFoot  -5.27667 0.256936 -4.2519
LeftToes  1.25507e-010 -3.78807e-010 5.71421e-011
653
root  -74.3932 39.7115 -14.9343 176.75 63.7628 -172.264
RightUpLeg  9.24233 -0.157187 5.57762
RightLeg  0.647944 10.144 -2.49836
RightFoot  -3.7037 -0.304238 4.17709
RightToes  5.82063e-011 0 -3.6325e-017
Spine  17.2735 1.84788 10.3719
Spine1  -0.362528 4.86377 -6.44843
HEad  -20.3336 -24.4186 7.19772
LeftShoulder1  3.14708 -4.04855 -35.6241
LeftArm  2.84058 8.10852 -28.0984
LeftForeArm  12.9839 -2.0488 -16.864
LeftHand  -1.4911 -5.15422 16.6218
RightShoulder  13.5018 13.2128 68.5631
RightArm  18.1909 10.7567 -0.982507
RightForeArm  12.7452 7.00068 14.1676
RightHand  0.823775 20.3835 3.17858
LeftUpLeg  -5.99743 -1.50194 13.3554
LeftLeg  20.3084 5.92145 2.74545
LeftFoot  -3.01769 0.288867 -3.72064
LeftToes  1.25507e-010 -3.78807e-010 5.71421e-011
654
root  -73.869 39.7195 -15.6594 178.361 65.1375 -170.989
RightUpLeg  10.2695 -0.364641 5.28875
RightLeg  0.0911476 11.7961 -2.65123
RightFoot  -4.64516 -0.293546 4.47385
RightToes  5.82063e-011 0 -3.6325e-017
Spine  16.7098 1.92525 10.2157
Spine1  0.00321857 4.84108 -6.56861
HEad  -20.2955 -24.9695 7.60406
LeftShoulder1  3.13764 -4.03741 -35.5619
LeftArm  3.24192 10.1586 -26.898
LeftForeArm  11.5617 -1.04817 -17.2224
LeftHand  -1.27013 -5.60706 13.6688
RightShoulder  14.9777 15.0346 68.5918
RightArm  20.3804 12.578 0.127904
RightForeArm  10.8717 9.70236 13.0443
RightHand  0.809521 20.5721 3.0874
LeftUpLeg  -3.53725 2.46806 13.6661
LeftLeg  6.20802 -2.9335 4.2978
LeftFoot  -0.435522 0.586116 -6.11032
LeftToes  1.25507e-010 -3.78807e-010 5.71421e-011
655
root  -73.3547 39.6766 -16.4135 -179.029 66.4615 -168.637
RightUpLeg  11.2099 -0.423227 5.26423
RightLeg  -0.267611 13.4387 -2.71568
RightFoot  -5.8185 -0.28174 5.01605
RightToes  5.82063e-011 0 -3.6325e-017
Spine  16.4709 2.1134 10.1899
Spine1  -0.194755 4.90277 -6.561
HEad  -20.4123 -25.7981 8.46749
LeftShoulder1  3.13812 -4.06498 -35.4201
LeftArm  3.36693 12.4306 -26.0019
LeftForeArm  11.1729 -0.340097 -17.4034
LeftHand  -1.15536 -5.77402 12.2944
RightShoulder  16.0632 16.376 68.6057
RightArm  24.2833 13.6732 1.10456
RightForeArm  7.2573 13.1845 11.2225
RightHand  0.788918 20.7262 2.97449
LeftUpLeg  -2.20127 6.84204 15.0315
LeftLeg  -4.91312 -12.9482 6.36295
LeftFoot  -0.816491 0.638296 -6.87281
LeftToes  1.25507e-010 -3.78807e-010 5.71421e-011
656
root  -72.8328 39.6284 -17.1979 -176.48 67.2688 -166.193
RightUpLeg  12.455 -0.467958 5.29228
RightLeg  -0.864944 14.3128 -2.96241
RightFoot  -6.74028 -0.252077 5.12898
RightToes  5.82063e-011 0 -3.6325e-017
Spine  16.4661 2.28833 9.50161
Spine1  -0.614571 4.75698 -5.78768
HEad  -20.7036 -26.5766 9.76764
LeftShoulder1  3.12449 -3.99573 -35.6162
LeftArm  3.1839 14.7348 -25.3731
LeftForeArm  11.4452 0.0562011 -17.4477
LeftHand  -1.1781 -5.66721 12.6434
RightShoulder  16.7701 17.2906 68.5017
RightArm  26.7165 14.6793 2.06696
RightForeArm  4.86951 15.5781 9.62734
RightHand  0.739561 20.9532 2.72766
LeftUpLeg  -2.95895 8.55353 16.6924
LeftLeg  -9.09664 -19.1007 6.71969
LeftFoot  -7.74783 0.275979 -7.31242
LeftToes  1.25507e-010 -3.78807e-010 5.71421e-011
657
root  -72.3784 39.5159 -18.0721 -174.875 67.0952 -164.692
RightUpLeg  13.1962 -0.6078 4.97053
RightLeg  -0.256351 14.68 -3.05244
RightFoot  -8.47541 -0.202132 5.77079
RightToes  5.82063e-011 0 -3.6325e-017
Spine  16.8123 2.18312 8.97693
Spine1  -1.08232 4.47348 -5.3212
HEad  -21.8427 -27.5834 11.9245
LeftShoulder1  3.12457 -4.00377 -35.5736
LeftArm  3.77337 15.6792 -25.3156
LeftForeArm  10.9688 0.615342 -17.6411
LeftHand  -1.28295 -4.47023 15.3204
RightShoulder  17.0243 17.5689 68.6026
RightArm  28.5072 15.4511 2.51204
RightForeArm  2.57371 17.8636 7.9367
RightHand  0.637256 21.1939 2.2546
LeftUpLeg  -4.84202 8.85106 17.0125
LeftLeg  -7.35856 -20.7514 6.21082
LeftFoot  -11.3345 0.0683452 -9.84402
LeftToes  1.25507e-010 -3.78807e-010 5.71421e-011
658
root  -71.8952 39.3535 -19.0454 -173.735 67.2686 -163.479
RightUpLeg  13.9786 -0.529923 4.57302
RightLeg  0.934773 15.134 -3.4905
RightFoot  -10.5512 -0.116593 6.50008
RightToes  5.82063e-011 0 -3.6325e-017
Spine  16.516 2.40288 9.1373
Spine1  -0.418747 4.81893 -5.62807
HEad  -23.3199 -28.7448 14.6187
LeftShoulder1  3.11977 -4.06963 -35.1576
LeftArm  3.55405 15.1197 -26.1034
LeftForeArm  10.7555 1.94592 -17.849
LeftHand  -1.08223 -5.30836 12.0178
RightShoulder  17.1359 17.5857 68.9295
RightArm  29.3894 15.6217 2.26007
RightForeArm  0.200841 19.971 6.43695
RightHand  0.546517 21.1792 1.86376
LeftUpLeg  -5.87121 8.0528 16.4109
LeftLeg  -4.09299 -18.9808 5.86105
LeftFoot  -7.53061 0.25709 -6.36811
LeftToes  1.25507e-010 -3.78807e-010 5.71421e-011
659
root  -71.356 39.2488 -20.0459 -172.471 68.2947 -161.945
RightUpLeg  15.7736 -0.188285 4.21513
RightLeg  0.463013 15.8273 -4.68988
RightFoot  -11.7386 -0.0539351 7.45135
RightToes  5.82063e-011 0 -3.6325e-017
Spine  15.9594 2.84545 8.98771
Spine1  0.476546 5.43207 -6.36954
HEad  -22.9435 -29.4826 15.8821
LeftShoulder1  3.09673 -4.07333 -34.8393
LeftArm  2.91763 15.7227 -26.8438
LeftForeArm  11.4066 1.98247 -17.7597
LeftHand  -1.01496 -5.08646 11.5213
RightShoulder  17.4465 17.8009 69.3767
RightArm  29.8656 15.226 2.10391
RightForeArm  -0.606537 20.8069 5.92866
RightHand  0.466117 21.2956 1.50646
LeftUpLeg  -5.8457 6.51357 15.9175
LeftLeg  -0.496254 -16.9485 6.43501
LeftFoot  -7.33113 0.428704 -10.9678
LeftToes  1.25507e-010 -3.78807e-010 5.71421e-011
660
root  -70.8071 39.0801 -21.0494 -171.546 69.3746 -160.407
RightUpLeg  17.301 0.312458 3.94264
RightLeg  1.32756 16.346 -5.77359
RightFoot  -13.3034 0.0556162 8.51519
RightToes  5.82063e-011 0 -3.6325e-017
Spine  16.0451 3.02485 8.1146
Spine1  0.633197 5.56821 -6.66144
HEad  -21.8649 -29.7788 16.906
LeftShoulder1  3.06414 -3.97759 -34.9245
LeftArm  5.71536 16.7149 -26.6417
LeftForeArm  9.76322 0.0449062 -17.8034
LeftHand  -1.06778 -5.26661 11.9066
RightShoulder  17.8687 17.8931 70.4991
RightArm  30.7731 15.2016 2.22951
RightForeArm  -0.0548917 20.2349 6.28632
RightHand  0.494703 21.3161 1.62781
LeftUpLeg  -6.43778 6.19037 16.2452
LeftLeg  4.5515 -17.9764 3.87243
LeftFoot  -4.26231 0.783242 -12.2146
LeftToes  1.25507e-010 -3.78807e-010 5.71421e-011
661
root  -70.2819 38.8994 -22.0512 -172.603 69.963 -161.616
RightUpLeg  17.3569 0.10558 2.29196
RightLeg  3.83931 17.5118 -5.93738
RightFoot  -15.3496 0.222718 9.32809
RightToes  5.82063e-011 0 -3.6325e-017
Spine  15.7917 3.22593 6.84214
Spine1  0.365938 5.62957 -6.98222
HEad  -20.9235 -30.9914 17.133
LeftShoulder1  3.09946 -4.0126 -35.1987
LeftArm  10.3782 15.6837 -26.4477
LeftForeArm  7.42693 -0.931553 -18.1565
LeftHand  -1.12869 -5.15093 12.6947
RightShoulder  18.0246 17.4645 72.1593
RightArm  29.1053 15.1579 2.00454
RightForeArm  3.96192 18.3172 7.47231
RightHand  0.525463 21.3517 1.75693
LeftUpLeg  -8.05308 1.15313 16.0955
LeftLeg  10.6697 -13.1554 0.339989
LeftFoot  -3.87918 0.821294 -12.2028
LeftToes  1.25507e-010 -3.78807e-010 5.71421e-011
662
root  -69.8153 38.9179 -22.9706 -172.995 71.0825 -162.381
RightUpLeg  17.0506 2.38644 1.3785
RightLeg  6.07475 16.8598 -5.73338
RightFoot  -15.5068 0.295381 10.9931
RightToes  5.82063e-011 0 -3.6325e-017
Spine  15.4541 3.69034 6.34076
Spine1  0.258865 6.23145 -8.46634
HEad  -19.7987 -32.4268 15.8781
LeftShoulder1  3.09104 -4.02134 -35.042
LeftArm  16.5227 13.0042 -26.9246
LeftForeArm  3.12393 -1.58888 -18.7349
LeftHand  -1.00568 -5.23309 11.2699
RightShoulder  17.9599 16.8899 73.5498
RightArm  28.3908 14.3173 1.80806
RightForeArm  7.01617 17.1819 8.16156
RightHand  0.699476 20.9138 2.55766
LeftUpLeg  -8.32595 0.716219 15.1924
LeftLeg  13.4596 -11.1338 -1.2071
LeftFoot  -3.54122 0.591273 -8.35226
LeftToes  1.25507e-010 -3.78807e-010 5.71421e-011
663
root  -69.425 39.0543 -23.8244 -172.502 72.4817 -162.094
RightUpLeg  16.2132 10.0036 2.06321
RightLeg  9.70589 11.3663 -4.15776
RightFoot  -14.3582 0.24987 13.1515
RightToes  5.82063e-011 0 -3.6325e-017
Spine  15.5304 4.0179 6.05923
Spine1  -0.193656 6.64658 -9.8846
HEad  -17.7423 -32.9536 13.1094
LeftShoulder1  3.02476 -3.79772 -35.3834
LeftArm  18.4892 10.2141 -27.0413
LeftForeArm  2.49966 -1.61978 -18.921
LeftHand  -1.04939 -5.06217 11.9256
RightShoulder  18.0591 16.5711 74.7771
RightArm  30.1747 13.7679 1.83983
RightForeArm  10.0527 15.8866 9.14681
RightHand  0.814923 20.8553 3.07031
LeftUpLeg  -7.45312 1.4462 13.981
LeftLeg  14.4672 -10.1827 -1.37177
LeftFoot  -3.6516 0.379426 -5.31813
LeftToes  1.25507e-010 -3.78807e-010 5.71421e-011
